<svg xmlns="http://www.w3.org/2000/svg" width="218.371" height="189.086" viewBox="0 0 218.371 189.086">
  <g id="Agility" transform="translate(-1198.763 -475.607)">
    <g id="Group_22" data-name="Group 22">
      <g id="Group_16" data-name="Group 16">
        <path id="Path_43" data-name="Path 43" d="M1299.992,535.648a3.623,3.623,0,0,1-3.624-3.624v-8.836l-5.218-.023h-25.144v-7.248l34,.039a3.624,3.624,0,0,1,3.608,3.624v5.043l24.469-19-24.469-18.994v5.545a3.625,3.625,0,0,1-3.624,3.624h-49.745v-7.248h46.121v-9.322a3.624,3.624,0,0,1,5.846-2.863l34,26.394a3.626,3.626,0,0,1,0,5.726l-34,26.4A3.616,3.616,0,0,1,1299.992,535.648Z" fill="#333"/>
      </g>
      <g id="Group_18" data-name="Group 18">
        <g id="Group_17" data-name="Group 17">
          <rect id="Rectangle_3" data-name="Rectangle 3" width="8.335" height="7.248" transform="translate(1241.913 498.315)" fill="#333"/>
        </g>
      </g>
      <g id="Group_20" data-name="Group 20">
        <g id="Group_19" data-name="Group 19">
          <rect id="Rectangle_4" data-name="Rectangle 4" width="8.334" height="7.248" transform="translate(1233.261 513.319)" fill="#333"/>
        </g>
      </g>
      <g id="Group_21" data-name="Group 21">
        <rect id="Rectangle_5" data-name="Rectangle 5" width="13.726" height="7.248" transform="translate(1246.08 508.054)" fill="#333"/>
      </g>
    </g>
    <g id="Group_28" data-name="Group 28">
      <g id="Group_23" data-name="Group 23">
        <path id="Path_44" data-name="Path 44" d="M1275.707,664.693a3.623,3.623,0,0,1-3.624-3.624v-8.838l-5.22-.025h-25.141v-7.248l34,.042a3.625,3.625,0,0,1,3.606,3.624v5.043l24.469-19-24.469-18.993v5.545a3.624,3.624,0,0,1-3.624,3.623h-49.745V617.6h46.121v-9.322a3.624,3.624,0,0,1,5.847-2.863l34,26.394a3.625,3.625,0,0,1,0,5.725l-34,26.4A3.627,3.627,0,0,1,1275.707,664.693Z" fill="#333"/>
      </g>
      <g id="Group_25" data-name="Group 25">
        <g id="Group_24" data-name="Group 24">
          <rect id="Rectangle_6" data-name="Rectangle 6" width="8.334" height="7.248" transform="translate(1223.357 631.046)" fill="#333"/>
        </g>
      </g>
      <g id="Group_26" data-name="Group 26">
        <rect id="Rectangle_7" data-name="Rectangle 7" width="13.726" height="7.248" transform="translate(1224.032 644.973)" fill="#333"/>
      </g>
      <g id="Group_27" data-name="Group 27">
        <rect id="Rectangle_8" data-name="Rectangle 8" width="13.726" height="7.248" transform="translate(1198.763 617.68)" fill="#333"/>
      </g>
    </g>
    <g id="Group_36" data-name="Group 36">
      <g id="Group_29" data-name="Group 29">
        <path id="Path_45" data-name="Path 45" d="M1365.36,611.153a3.623,3.623,0,0,1-3.624-3.624V593.515l-8.892-.04H1295.4v-7.248l69.979.057a3.624,3.624,0,0,1,3.608,3.624v10.22l38.616-29.979-38.616-29.978V551.1a3.625,3.625,0,0,1-3.624,3.624h-47.313v-7.248h43.689V532.77a3.623,3.623,0,0,1,5.846-2.862l48.151,37.379a3.625,3.625,0,0,1,0,5.725l-48.151,37.379A3.616,3.616,0,0,1,1365.36,611.153Z" fill="#333"/>
      </g>
      <g id="Group_31" data-name="Group 31">
        <g id="Group_30" data-name="Group 30">
          <rect id="Rectangle_9" data-name="Rectangle 9" width="8.334" height="7.248" transform="translate(1265.939 558.626)" fill="#333"/>
        </g>
      </g>
      <g id="Group_33" data-name="Group 33">
        <g id="Group_32" data-name="Group 32">
          <rect id="Rectangle_10" data-name="Rectangle 10" width="8.334" height="7.248" transform="translate(1281.315 574.871)" fill="#333"/>
        </g>
      </g>
      <g id="Group_34" data-name="Group 34">
        <rect id="Rectangle_11" data-name="Rectangle 11" width="13.726" height="7.248" transform="translate(1298.884 547.436)" fill="#333"/>
      </g>
      <g id="Group_35" data-name="Group 35">
        <rect id="Rectangle_12" data-name="Rectangle 12" width="7.752" height="7.248" transform="translate(1285.227 547.436)" fill="#333"/>
      </g>
    </g>
  </g>
</svg>
