<svg xmlns="http://www.w3.org/2000/svg" width="201.265" height="201.266" viewBox="0 0 201.265 201.266">
  <g id="Drive" transform="translate(-108.627 -451.952)">
    <g id="Group_38" data-name="Group 38">
      <path id="Path_46" data-name="Path 46" d="M182.547,532.5l70.19-70.19,46.794,46.794L229.34,579.3" fill="none" stroke="#222831" stroke-linecap="round" stroke-linejoin="round" stroke-width="6.527"/>
      <path id="Path_47" data-name="Path 47" d="M299.53,509.108c2.3-6.518,10.137-27.776,5.849-52.643-24.866-4.287-46.125,3.547-52.642,5.849" fill="none" stroke="#222831" stroke-linecap="round" stroke-linejoin="round" stroke-width="6.527"/>
      <path id="Path_48" data-name="Path 48" d="M144.527,541.278,131.539,528.29c-2.526-2.526-1.635-7.484,1.29-10.408,13.621-13.622,27.183-8.375,42.991-7.9" fill="none" stroke="#222831" stroke-linecap="round" stroke-linejoin="round" stroke-width="6.527"/>
      <path id="Path_49" data-name="Path 49" d="M220.566,617.317l12.989,12.989c2.525,2.526,7.483,1.634,10.408-1.29,13.621-13.622,8.375-27.183,7.9-42.991" fill="none" stroke="#222831" stroke-linecap="round" stroke-linejoin="round" stroke-width="6.527"/>
      <path id="Path_50" data-name="Path 50" d="M213.62,581.126c1.1,18.644-4.752,24.493-16.45,36.191L170.848,591l-26.321-26.321c11.7-11.7,17.548-17.548,36.192-16.451" fill="none" stroke="#222831" stroke-linecap="round" stroke-linejoin="round" stroke-width="6.527"/>
      <path id="Path_51" data-name="Path 51" d="M255.467,530.16a16.817,16.817,0,1,1,0-23.782A16.816,16.816,0,0,1,255.467,530.16Z" fill="none" stroke="#222831" stroke-linecap="round" stroke-linejoin="round" stroke-width="6.527"/>
      <path id="Path_52" data-name="Path 52" d="M175.82,509.985l44.746-44.746c1.735-.613,8.774-2.925,14.623-2.925" fill="none" stroke="#222831" stroke-linecap="round" stroke-linejoin="round" stroke-width="6.527"/>
      <path id="Path_53" data-name="Path 53" d="M251.859,586.025l44.746-44.747c.613-1.734,2.925-8.774,2.925-14.623" fill="none" stroke="#222831" stroke-linecap="round" stroke-linejoin="round" stroke-width="6.527"/>
    </g>
    <line id="Line_5" data-name="Line 5" x1="21.022" y2="21.022" transform="translate(121.651 585.538)" fill="none" stroke="#222831" stroke-linecap="round" stroke-linejoin="round" stroke-width="6.527"/>
    <line id="Line_6" data-name="Line 6" x1="12.613" y2="12.613" transform="translate(146.877 602.355)" fill="none" stroke="#222831" stroke-linecap="round" stroke-linejoin="round" stroke-width="6.527"/>
    <line id="Line_7" data-name="Line 7" x1="29.43" y2="29.43" transform="translate(146.877 619.172)" fill="none" stroke="#222831" stroke-linecap="round" stroke-linejoin="round" stroke-width="6.527"/>
    <line id="Line_8" data-name="Line 8" x1="16.817" y2="16.817" transform="translate(193.124 631.785)" fill="none" stroke="#222831" stroke-linecap="round" stroke-linejoin="round" stroke-width="6.527"/>
    <line id="Line_9" data-name="Line 9" x1="16.817" y2="16.817" transform="translate(113.242 551.903)" fill="none" stroke="#222831" stroke-linecap="round" stroke-linejoin="round" stroke-width="6.527"/>
  </g>
</svg>
