<svg xmlns="http://www.w3.org/2000/svg" width="204.79" height="204.79" viewBox="0 0 204.79 204.79">
  <g id="empowerment" transform="translate(-447.002 -455.137)">
    <g id="Group_8" data-name="Group 8">
      <g id="Group_7" data-name="Group 7">
        <path id="Path_11" data-name="Path 11" d="M498,491.445v-25.7a7.343,7.343,0,0,1,7.343-7.343h0a7.344,7.344,0,0,1,7.343,7.343v25.7" fill="none" stroke="#222831" stroke-linecap="round" stroke-linejoin="round" stroke-width="6.527"/>
        <path id="Path_12" data-name="Path 12" d="M483.31,491.445v-25.7a7.343,7.343,0,0,1,7.343-7.343h0A7.344,7.344,0,0,1,498,465.744v25.7" fill="none" stroke="#222831" stroke-linecap="round" stroke-linejoin="round" stroke-width="6.527"/>
        <path id="Path_13" data-name="Path 13" d="M468.623,498.788" fill="none" stroke="#222831" stroke-linecap="round" stroke-linejoin="round" stroke-width="6.527"/>
        <path id="Path_14" data-name="Path 14" d="M527.368,498.788" fill="none" stroke="#222831" stroke-linecap="round" stroke-linejoin="round" stroke-width="6.527"/>
        <path id="Path_15" data-name="Path 15" d="M468.623,506.131V465.744a7.344,7.344,0,0,1,7.344-7.343h0a7.344,7.344,0,0,1,7.343,7.343v25.7" fill="none" stroke="#222831" stroke-linecap="round" stroke-linejoin="round" stroke-width="6.527"/>
        <path id="Path_16" data-name="Path 16" d="M464.952,564.876v-7.343c-8.934-7.061-14.686-26.281-14.686-38.552V509.8" fill="none" stroke="#222831" stroke-linecap="round" stroke-linejoin="round" stroke-width="6.527"/>
        <path id="Path_17" data-name="Path 17" d="M512.682,491.445v-25.7a7.343,7.343,0,0,1,7.343-7.343h0a7.344,7.344,0,0,1,7.343,7.343v53.237c0,10.5-4.208,31.6-11.015,38.552v7.343" fill="none" stroke="#222831" stroke-linecap="round" stroke-linejoin="round" stroke-width="6.527"/>
      </g>
      <path id="Path_18" data-name="Path 18" d="M450.266,517.146V498.788a7.343,7.343,0,0,1,7.343-7.343h0a11.014,11.014,0,0,1,11.014,11.015v18.357" fill="none" stroke="#222831" stroke-linecap="round" stroke-linejoin="round" stroke-width="6.527"/>
    </g>
    <g id="Group_10" data-name="Group 10">
      <g id="Group_9" data-name="Group 9">
        <path id="Path_19" data-name="Path 19" d="M483.31,608.934h-25.7a7.343,7.343,0,0,1-7.343-7.343h0a7.343,7.343,0,0,1,7.343-7.343h25.7" fill="none" stroke="#222831" stroke-linecap="round" stroke-linejoin="round" stroke-width="6.527"/>
        <path id="Path_20" data-name="Path 20" d="M483.31,623.62h-25.7a7.342,7.342,0,0,1-7.343-7.343h0a7.343,7.343,0,0,1,7.343-7.343h25.7" fill="none" stroke="#222831" stroke-linecap="round" stroke-linejoin="round" stroke-width="6.527"/>
        <path id="Path_21" data-name="Path 21" d="M490.653,638.306" fill="none" stroke="#222831" stroke-linecap="round" stroke-linejoin="round" stroke-width="6.527"/>
        <path id="Path_22" data-name="Path 22" d="M490.653,579.562" fill="none" stroke="#222831" stroke-linecap="round" stroke-linejoin="round" stroke-width="6.527"/>
        <path id="Path_23" data-name="Path 23" d="M498,638.306H457.609a7.342,7.342,0,0,1-7.343-7.343h0a7.343,7.343,0,0,1,7.343-7.343h25.7" fill="none" stroke="#222831" stroke-linecap="round" stroke-linejoin="round" stroke-width="6.527"/>
        <path id="Path_24" data-name="Path 24" d="M556.74,641.978H549.4c-7.06,8.933-26.28,14.686-38.551,14.686h-9.179" fill="none" stroke="#222831" stroke-linecap="round" stroke-linejoin="round" stroke-width="6.527"/>
        <path id="Path_25" data-name="Path 25" d="M483.31,594.248h-25.7a7.343,7.343,0,0,1-7.343-7.343h0a7.342,7.342,0,0,1,7.343-7.343h53.237c10.5,0,31.6,4.208,38.551,11.014h7.343" fill="none" stroke="#222831" stroke-linecap="round" stroke-linejoin="round" stroke-width="6.527"/>
      </g>
      <path id="Path_26" data-name="Path 26" d="M509.01,656.664H490.653a7.343,7.343,0,0,1-7.343-7.343h0a11.015,11.015,0,0,1,11.014-11.015h18.358" fill="none" stroke="#222831" stroke-linecap="round" stroke-linejoin="round" stroke-width="6.527"/>
    </g>
    <g id="Group_12" data-name="Group 12">
      <g id="Group_11" data-name="Group 11">
        <path id="Path_27" data-name="Path 27" d="M600.8,623.62v25.7a7.344,7.344,0,0,1-7.343,7.343h0a7.343,7.343,0,0,1-7.343-7.343v-25.7" fill="none" stroke="#222831" stroke-linecap="round" stroke-linejoin="round" stroke-width="6.527"/>
        <path id="Path_28" data-name="Path 28" d="M615.485,623.62v25.7a7.344,7.344,0,0,1-7.343,7.343h0a7.343,7.343,0,0,1-7.343-7.343v-25.7" fill="none" stroke="#222831" stroke-linecap="round" stroke-linejoin="round" stroke-width="6.527"/>
        <path id="Path_29" data-name="Path 29" d="M630.171,616.277" fill="none" stroke="#222831" stroke-linecap="round" stroke-linejoin="round" stroke-width="6.527"/>
        <path id="Path_30" data-name="Path 30" d="M571.426,616.277" fill="none" stroke="#222831" stroke-linecap="round" stroke-linejoin="round" stroke-width="6.527"/>
        <path id="Path_31" data-name="Path 31" d="M630.171,608.934v40.387a7.344,7.344,0,0,1-7.343,7.343h0a7.343,7.343,0,0,1-7.343-7.343v-25.7" fill="none" stroke="#222831" stroke-linecap="round" stroke-linejoin="round" stroke-width="6.527"/>
        <path id="Path_32" data-name="Path 32" d="M633.842,550.19v7.343c8.934,7.06,14.687,26.28,14.687,38.551v9.179" fill="none" stroke="#222831" stroke-linecap="round" stroke-linejoin="round" stroke-width="6.527"/>
        <path id="Path_33" data-name="Path 33" d="M586.113,623.62v25.7a7.344,7.344,0,0,1-7.344,7.343h0a7.344,7.344,0,0,1-7.343-7.343V596.084c0-10.5,4.209-31.6,11.015-38.551V550.19" fill="none" stroke="#222831" stroke-linecap="round" stroke-linejoin="round" stroke-width="6.527"/>
      </g>
      <path id="Path_34" data-name="Path 34" d="M648.529,597.919v18.358a7.343,7.343,0,0,1-7.344,7.343h0a11.014,11.014,0,0,1-11.014-11.014V594.248" fill="none" stroke="#222831" stroke-linecap="round" stroke-linejoin="round" stroke-width="6.527"/>
    </g>
    <g id="Group_14" data-name="Group 14">
      <g id="Group_13" data-name="Group 13">
        <path id="Path_35" data-name="Path 35" d="M615.485,506.131h25.7a7.344,7.344,0,0,1,7.344,7.343h0a7.343,7.343,0,0,1-7.344,7.343h-25.7" fill="none" stroke="#222831" stroke-linecap="round" stroke-linejoin="round" stroke-width="6.527"/>
        <path id="Path_36" data-name="Path 36" d="M615.485,491.445h25.7a7.344,7.344,0,0,1,7.344,7.343h0a7.343,7.343,0,0,1-7.344,7.343h-25.7" fill="none" stroke="#222831" stroke-linecap="round" stroke-linejoin="round" stroke-width="6.527"/>
        <path id="Path_37" data-name="Path 37" d="M608.142,476.759" fill="none" stroke="#222831" stroke-linecap="round" stroke-linejoin="round" stroke-width="6.527"/>
        <path id="Path_38" data-name="Path 38" d="M608.142,535.5" fill="none" stroke="#222831" stroke-linecap="round" stroke-linejoin="round" stroke-width="6.527"/>
        <path id="Path_39" data-name="Path 39" d="M600.8,476.759h40.386a7.344,7.344,0,0,1,7.344,7.343h0a7.344,7.344,0,0,1-7.344,7.343h-25.7" fill="none" stroke="#222831" stroke-linecap="round" stroke-linejoin="round" stroke-width="6.527"/>
        <path id="Path_40" data-name="Path 40" d="M542.054,473.087H549.4c7.06-8.933,26.28-14.686,38.551-14.686h9.179" fill="none" stroke="#222831" stroke-linecap="round" stroke-linejoin="round" stroke-width="6.527"/>
        <path id="Path_41" data-name="Path 41" d="M615.485,520.817h25.7a7.344,7.344,0,0,1,7.344,7.343h0a7.343,7.343,0,0,1-7.344,7.343H587.948c-10.5,0-31.6-4.208-38.551-11.014h-7.343" fill="none" stroke="#222831" stroke-linecap="round" stroke-linejoin="round" stroke-width="6.527"/>
      </g>
      <path id="Path_42" data-name="Path 42" d="M589.784,458.4h18.358a7.344,7.344,0,0,1,7.343,7.343h0a11.015,11.015,0,0,1-11.015,11.015H586.113" fill="none" stroke="#222831" stroke-linecap="round" stroke-linejoin="round" stroke-width="6.527"/>
    </g>
  </g>
</svg>
