<svg xmlns="http://www.w3.org/2000/svg" width="197.447" height="182.76" viewBox="0 0 197.447 182.76">
  <g id="Entrepreneurial" transform="translate(-1577.21 -460.441)">
    <g id="Group_1" data-name="Group 1">
      <path id="Path_1" data-name="Path 1" d="M1596.558,610.566a14.534,14.534,0,0,1-2.286-5.132l-6.455-27.912V537.135" fill="none" stroke="#222831" stroke-linecap="round" stroke-linejoin="round" stroke-width="6.527"/>
      <path id="Path_2" data-name="Path 2" d="M1609.846,544.478l-3.672,33.044,4.106,33.044" fill="none" stroke="#222831" stroke-linecap="round" stroke-linejoin="round" stroke-width="6.527"/>
      <rect id="Rectangle_1" data-name="Rectangle 1" width="44.058" height="29.372" transform="translate(1580.474 610.566)" fill="none" stroke="#222831" stroke-linecap="round" stroke-linejoin="round" stroke-width="6.527"/>
      <line id="Line_1" data-name="Line 1" x2="3.672" transform="translate(1600.667 625.252)" fill="none" stroke="#222831" stroke-linecap="round" stroke-linejoin="round" stroke-width="6.527"/>
      <path id="Path_3" data-name="Path 3" d="M1587.817,565.941V532.33a15.028,15.028,0,0,1,5.874-11.951l.219-.166a24.776,24.776,0,0,1,19.188-4.759h0a25.1,25.1,0,0,1,17.4,12.048l.485.822a30.272,30.272,0,0,1,4.154,16.758l-2.318,50.763" fill="none" stroke="#222831" stroke-linecap="round" stroke-linejoin="round" stroke-width="6.527"/>
      <path id="Path_4" data-name="Path 4" d="M1613.518,500.42h0a14.686,14.686,0,0,1-14.686-14.686v-7.343a14.686,14.686,0,0,1,14.686-14.686h0a14.686,14.686,0,0,1,14.686,14.686v7.343A14.686,14.686,0,0,1,1613.518,500.42Z" fill="none" stroke="#222831" stroke-linecap="round" stroke-linejoin="round" stroke-width="6.527"/>
    </g>
    <g id="Group_2" data-name="Group 2">
      <path id="Path_5" data-name="Path 5" d="M1755.31,610.566a14.529,14.529,0,0,0,2.285-5.132l6.455-27.912V537.135" fill="none" stroke="#222831" stroke-linecap="round" stroke-linejoin="round" stroke-width="6.527"/>
      <path id="Path_6" data-name="Path 6" d="M1742.021,544.478l3.672,33.044-4.106,33.044" fill="none" stroke="#222831" stroke-linecap="round" stroke-linejoin="round" stroke-width="6.527"/>
      <rect id="Rectangle_2" data-name="Rectangle 2" width="44.058" height="29.372" transform="translate(1771.393 639.938) rotate(180)" fill="none" stroke="#222831" stroke-linecap="round" stroke-linejoin="round" stroke-width="6.527"/>
      <line id="Line_2" data-name="Line 2" x1="3.672" transform="translate(1747.528 625.252)" fill="none" stroke="#222831" stroke-linecap="round" stroke-linejoin="round" stroke-width="6.527"/>
      <path id="Path_7" data-name="Path 7" d="M1764.05,565.941V532.33a15.028,15.028,0,0,0-5.874-11.951l-.219-.166a24.776,24.776,0,0,0-19.188-4.759h0a25.1,25.1,0,0,0-17.4,12.048l-.485.822a30.29,30.29,0,0,0-4.154,16.758l2.318,50.763" fill="none" stroke="#222831" stroke-linecap="round" stroke-linejoin="round" stroke-width="6.527"/>
      <path id="Path_8" data-name="Path 8" d="M1738.35,500.42h0a14.687,14.687,0,0,0,14.686-14.686v-7.343A14.687,14.687,0,0,0,1738.35,463.7h0a14.686,14.686,0,0,0-14.686,14.686v7.343A14.686,14.686,0,0,0,1738.35,500.42Z" fill="none" stroke="#222831" stroke-linecap="round" stroke-linejoin="round" stroke-width="6.527"/>
    </g>
    <g id="Group_5" data-name="Group 5">
      <g id="Group_3" data-name="Group 3">
        <path id="Path_9" data-name="Path 9" d="M1661.248,540.807l-7.343-7.343,7.343-7.343" fill="none" stroke="#222831" stroke-linecap="round" stroke-linejoin="round" stroke-width="6.527"/>
        <line id="Line_3" data-name="Line 3" x2="44.058" transform="translate(1653.904 533.464)" fill="none" stroke="#222831" stroke-linecap="round" stroke-linejoin="round" stroke-width="6.527"/>
      </g>
      <g id="Group_4" data-name="Group 4">
        <path id="Path_10" data-name="Path 10" d="M1690.62,562.836l7.343-7.343-7.343-7.343" fill="none" stroke="#222831" stroke-linecap="round" stroke-linejoin="round" stroke-width="6.527"/>
        <line id="Line_4" data-name="Line 4" x1="44.058" transform="translate(1653.904 555.493)" fill="none" stroke="#222831" stroke-linecap="round" stroke-linejoin="round" stroke-width="6.527"/>
      </g>
    </g>
  </g>
</svg>
