<svg xmlns="http://www.w3.org/2000/svg" width="185.264" height="227.05" viewBox="0 0 185.264 227.05">
  <g id="excellence" transform="translate(-843.737 -451.973)">
    <g id="Group_40" data-name="Group 40">
      <path id="Path_54" data-name="Path 54" d="M956.6,567.43l24.282,5.36-19.607,21.563,2.6,28.461-27.513-11.161-27.513,11.161,2.6-28.461-19.607-21.563,29.122-6.429,15.4-24.487,15.4,24.487,4.839,1.068" fill="none" stroke="#222831" stroke-linecap="round" stroke-linejoin="round" stroke-width="7.195"/>
      <path id="Path_55" data-name="Path 55" d="M1022.038,610.674a89.067,89.067,0,1,1,3.365-24.283q0,4.092-.365,8.094" fill="none" stroke="#222831" stroke-linecap="round" stroke-linejoin="round" stroke-width="7.195"/>
      <path id="Path_56" data-name="Path 56" d="M928.274,522.14a64.7,64.7,0,1,1-16.188,4.206" fill="none" stroke="#222831" stroke-linecap="round" stroke-linejoin="round" stroke-width="7.195"/>
    </g>
    <line id="Line_10" data-name="Line 10" x1="31.611" y1="54.753" transform="translate(854.634 456.887)" fill="none" stroke="#222831" stroke-linecap="round" stroke-linejoin="round" stroke-width="7.195"/>
    <line id="Line_11" data-name="Line 11" x2="22.655" y2="39.24" transform="translate(910.711 456.887)" fill="none" stroke="#222831" stroke-linecap="round" stroke-linejoin="round" stroke-width="7.195"/>
    <line id="Line_12" data-name="Line 12" y1="53.676" x2="30.99" transform="translate(987.113 456.887)" fill="none" stroke="#222831" stroke-linecap="round" stroke-linejoin="round" stroke-width="7.195"/>
    <line id="Line_13" data-name="Line 13" x1="21.802" y2="37.762" transform="translate(940.223 456.887)" fill="none" stroke="#222831" stroke-linecap="round" stroke-linejoin="round" stroke-width="7.195"/>
  </g>
</svg>
